<?xml version="1.0" encoding="utf-8"?>
<!-- Generator: Adobe Illustrator 23.1.0, SVG Export Plug-In . SVG Version: 6.00 Build 0)  -->
<svg version="1.1" id="Layer_1" xmlns="http://www.w3.org/2000/svg" xmlns:xlink="http://www.w3.org/1999/xlink" x="0px" y="0px"
	 viewBox="0 0 100 100" style="enable-background:new 0 0 100 100;" xml:space="preserve">
<path fill="#60646C" d="M90.6,51.7L74.8,51c-4.7,0-10.3,1.5-14.6,5.5c-5.4,5.1-6,13.4-3.8,18.8c2.3,5.3,8.7,8.7,15,7.4
	c5-1,7.9-5.6,7.3-9.9c-0.4-3.6-2.5-5.3-5-5.3c-2.5,0-3.5,1.4-3.7,2.7c-0.2,1.3,0.2,2.1,1.2,3c1.5,1.4-1.2,5.1-4.9,2.9
	c-2-1.2-3.5-4.1-3.1-7.7c0.5-4.9,4.5-9.3,11.6-9.4c7.3-0.1,12.4,4.5,14.1,11.2c2.2,8.5-2.3,18.5-12.4,24
	c-12.6,6.8-33.8,6.1-45.3-6.1c-6.8-7.2-9-16.4-8.4-24.8c0.2-2.8,0.6-5.7,1.2-8.6c0.2-1-0.5-1.9-1.5-2.1c-0.1,0-0.2,0-0.4,0H2.5
	C1.1,52.5,0,51.4,0,50c0-0.2,0-0.4,0.1-0.5l6.2-26.9c0.4-1.7,1.9-2.8,3.6-2.8h19.2c1.1,0,2.1-0.7,2.4-1.8l3.3-13.7
	c0.4-1.6,1.9-2.7,3.6-2.7h30c1.4,0,2.5,1.1,2.5,2.4c0,0.2,0,0.4-0.1,0.5l-3.2,13.7c-0.2,0.7,0.3,1.3,0.9,1.5c0.1,0,0.2,0,0.3,0h29
	c1.4,0,2.3,1.1,2.3,2.4c0,0.2,0,0.4-0.1,0.6l-6.8,27.1C92.9,51,91.8,51.7,90.6,51.7L90.6,51.7z M90.6,51.7"/>
</svg>
