<?xml version="1.0" encoding="utf-8"?>
<!-- Generator: Adobe Illustrator 26.1.0, SVG Export Plug-In . SVG Version: 6.00 Build 0)  -->
<svg version="1.1" id="Слой_1" xmlns="http://www.w3.org/2000/svg" xmlns:xlink="http://www.w3.org/1999/xlink" x="0px" y="0px"
	 viewBox="0 0 256 256" style="enable-background:new 0 0 256 256;" xml:space="preserve">
<style type="text/css">
	.st0{fill:#60646C;}
</style>
<path class="st0" d="M250.6,66.5c-2.9-11-11.6-19.6-22.5-22.5c-20-5.5-100.1-5.5-100.1-5.5s-80.1,0-100.1,5.3
	C17.2,46.7,8.3,55.5,5.4,66.5C0.1,86.5,0.1,128,0.1,128s0,41.7,5.3,61.5c2.9,11,11.6,19.6,22.5,22.5c20.2,5.5,100.1,5.5,100.1,5.5
	s80.1,0,100.1-5.3c11-2.9,19.6-11.6,22.5-22.5c5.3-20,5.3-61.5,5.3-61.5S256.1,86.5,250.6,66.5z M102.5,166.3V89.7l66.6,38.3
	L102.5,166.3z"/>
</svg>
